<?xml version="1.0" encoding="UTF-8"?>
<svg version="1.1" xmlns="http://www.w3.org/2000/svg" width="61" height="61">
<path d="M0 0 C2.75 1.25 2.75 1.25 5 4 C5.68048223 7.02532865 6.08191385 10.02937743 6.46875 13.10546875 C7.13932409 16.7591114 8.9120957 18.96917117 11 22 C11.43337281 24.30306692 11.62439972 26.55377398 11.78515625 28.890625 C12.05059515 31.49675242 12.97350958 33.6048557 14 36 C14 37.32 14 38.64 14 40 C11.67063051 42.24844847 8.96718468 43.72756591 6 45 C3 44.8125 3 44.8125 1 44 C0.505 42.02 0.505 42.02 0 40 C-3.43230448 40.26393501 -3.43230448 40.26393501 -7 41 C-7.66 41.99 -8.32 42.98 -9 44 C-14.27749285 43.46148032 -18.25645564 42.22656164 -23 40 C-22.875 36.75 -22.875 36.75 -22 33 C-18.9375 30.5625 -18.9375 30.5625 -16 29 C-16.66 29 -17.32 29 -18 29 C-21.66666667 29 -25.33333333 29 -29 29 C-29.33 28.34 -29.66 27.68 -30 27 C-30.33 27.66 -30.66 28.32 -31 29 C-31.639375 28.814375 -32.27875 28.62875 -32.9375 28.4375 C-33.9584375 28.2209375 -33.9584375 28.2209375 -35 28 C-35.33 28.33 -35.66 28.66 -36 29 C-38.33944736 28.71269945 -40.6739143 28.38063221 -43 28 C-43 24.37 -43 20.74 -43 17 C-41.68 17 -40.36 17 -39 17 C-39 19.64 -39 22.28 -39 25 C-38.67 22.36 -38.34 19.72 -38 17 C-35.36 17 -32.72 17 -30 17 C-29.67 17.66 -29.34 18.32 -29 19 C-28.67 18.34 -28.34 17.68 -28 17 C-22.39 17 -16.78 17 -11 17 C-11.1546875 14.1846875 -11.1546875 14.1846875 -11.3125 11.3125 C-11.30741529 7.00574872 -11.28124017 5.43013202 -8.875 1.75 C-5.46347205 -0.32658223 -3.92041738 -0.73507826 0 0 Z M-21 19 C-21 21.31 -21 23.62 -21 26 C-20.34 25.34 -19.68 24.68 -19 24 C-19.32041397 21.39719432 -19.32041397 21.39719432 -20 19 C-20.33 19 -20.66 19 -21 19 Z " fill="#7F8380" transform="translate(46,7)"/>
<path d="M0 0 C0.5775 0.165 1.155 0.33 1.75 0.5 C4.45033485 1.10007441 6.34161797 0.66459551 9 0 C8.67 1.32 8.34 2.64 8 4 C8 3.34 8 2.68 8 2 C7.34 2 6.68 2 6 2 C6 2.99 6 3.98 6 5 C6.66 5 7.32 5 8 5 C11.61478507 12.51358897 13.83507383 18.61214729 13 27 C15.31 26.34 17.62 25.68 20 25 C21.5625 27.3125 21.5625 27.3125 23 30 C21.65740204 34.02779388 19.61006649 34.93053548 16.078125 37.05859375 C14 38 14 38 11 37.8125 C10.34 37.544375 9.68 37.27625 9 37 C9 35.35 9 33.7 9 32 C8.09507813 32.10441406 8.09507813 32.10441406 7.171875 32.2109375 C4.68057264 32.37970314 2.46882664 32.38668369 0 32 C-2.95700904 29.33147964 -3.82782909 27.33332359 -4.3359375 23.3984375 C-4.49282446 19.0176708 -4.38792124 15.25167037 -2.5 11.25 C-0.80171075 7.57037329 -0.83997012 5.00074695 -1 1 C-0.67 0.67 -0.34 0.34 0 0 Z " fill="#DEE0DD" transform="translate(38,14)"/>
<path d="M0 0 C2.75 1.25 2.75 1.25 5 4 C5.68048223 7.02532865 6.08191385 10.02937743 6.46875 13.10546875 C7.13932409 16.7591114 8.9120957 18.96917117 11 22 C11.78126502 25.00005769 12.32412883 27.90604303 12 31 C10.75390625 32.76953125 10.75390625 32.76953125 9 34 C7.68 34 6.36 34 5 34 C4.89042969 33.13117187 4.78085937 32.26234375 4.66796875 31.3671875 C3.83905056 25.34236752 3.08750699 20.33296662 0 15 C0 14.01 0 13.02 0 12 C-0.66 12 -1.32 12 -2 12 C-2 11.01 -2 10.02 -2 9 C-1.34 9 -0.68 9 0 9 C0.33 8.34 0.66 7.68 1 7 C-1.86724686 7.57344937 -2.8614515 7.8614515 -5 10 C-5.33 9.34 -5.66 8.68 -6 8 C-6.66 8 -7.32 8 -8 8 C-7.896875 9.11375 -7.79375 10.2275 -7.6875 11.375 C-7.6374002 16.96613752 -10.28028067 21.25991774 -13 26 C-13.66 25.34 -14.32 24.68 -15 24 C-14.61121812 20.98694043 -13.73543126 19.60314689 -12 17 C-11.8302306 15.04626038 -11.73394698 13.08555166 -11.6875 11.125 C-11.39378868 6.9421457 -11.20462734 5.30401776 -8.8125 1.75 C-5.43798736 -0.34969675 -3.9016438 -0.73155821 0 0 Z " fill="#141513" transform="translate(46,7)"/>
<path d="M0 0 C0 0.66 0 1.32 0 2 C0.61875 2.2475 1.2375 2.495 1.875 2.75 C4 4 4 4 4.75 6.0625 C5.80439776 8.17997243 5.80439776 8.17997243 7.8984375 8.48046875 C9.92485781 8.72577226 11.96302126 8.86858202 14 9 C13.34 9.66 12.68 10.32 12 11 C11.175 10.979375 10.35 10.95875 9.5 10.9375 C8.675 10.958125 7.85 10.97875 7 11 C6.01 12.485 6.01 12.485 5 14 C-0.27749285 13.46148032 -4.25645564 12.22656164 -9 10 C-8.8125 6.6875 -8.8125 6.6875 -8 3 C-5.12075508 0.65114231 -3.72527067 0 0 0 Z " fill="#B88108" transform="translate(32,37)"/>
<path d="M0 0 C0.33 0.99 0.66 1.98 1 3 C3.31 2.34 5.62 1.68 8 1 C9.5625 3.3125 9.5625 3.3125 11 6 C9.65740204 10.02779388 7.61006649 10.93053548 4.078125 13.05859375 C2 14 2 14 -1 13.8125 C-1.66 13.544375 -2.32 13.27625 -3 13 C-4.00298661 9.17041475 -4.16842191 7.40574368 -2.625 3.6875 C-1 1 -1 1 0 0 Z " fill="#D79802" transform="translate(50,38)"/>
<path d="M0 0 C2.71611123 2.71611123 2.96848653 4.57456815 3.25 8.375 C2.98242658 12.25481454 2.24155671 13.89630609 0 17 C-0.66 17.99 -1.32 18.98 -2 20 C-7.0390117 20.73146944 -7.0390117 20.73146944 -10 20 C-13.23004091 16.446955 -14 14.83406485 -14 10 C-11 11 -11 11 -9.8125 13.0625 C-9.544375 13.701875 -9.27625 14.34125 -9 15 C-8.34 14.34 -7.68 13.68 -7 13 C-7 13.66 -7 14.32 -7 15 C-6.34 14.67 -5.68 14.34 -5 14 C-4.67 13.01 -4.34 12.02 -4 11 C-3.01 10.67 -2.02 10.34 -1 10 C-0.06608997 8.18343185 -0.06608997 8.18343185 0 6 C-0.85790183 3.78228936 -0.85790183 3.78228936 -2 2 C-1.34 2 -0.68 2 0 2 C0 1.34 0 0.68 0 0 Z " fill="#CACCC9" transform="translate(48,26)"/>
<path d="M0 0 C2.375 2 2.375 2 4 4 C1.59454362 5.20272819 0.05003047 5.10071472 -2.625 5.0625 C-3.85089844 5.04896484 -3.85089844 5.04896484 -5.1015625 5.03515625 C-6.04128906 5.01775391 -6.04128906 5.01775391 -7 5 C-8.22511696 8.03891266 -8.22511696 8.03891266 -7.75 11.5625 C-7.62694511 17.06920633 -10.32579314 21.33923948 -13 26 C-13.66 25.34 -14.32 24.68 -15 24 C-14.61121812 20.98694043 -13.73543126 19.60314689 -12 17 C-11.8302306 15.04626038 -11.73394698 13.08555166 -11.6875 11.125 C-11.39378868 6.9421457 -11.20462734 5.30401776 -8.8125 1.75 C-5.46096346 -0.33540051 -3.87316455 -0.74166981 0 0 Z " fill="#1D2427" transform="translate(46,7)"/>
<path d="M0 0 C4.09527304 3.68574573 5.76280174 6.62801735 6.3125 12.125 C6 15 6 15 4.75 16.875 C3 18 3 18 -1 18 C-1 14.37 -1 10.74 -1 7 C-0.34 7.66 0.32 8.32 1 9 C1.20086443 5.28400809 1.1519437 4.22791555 -1 1 C-0.67 0.67 -0.34 0.34 0 0 Z " fill="#0A0B0A" transform="translate(52,23)"/>
<path d="M0 0 C1.32 0 2.64 0 4 0 C4 2.64 4 5.28 4 8 C4.33 5.36 4.66 2.72 5 0 C5.33 0 5.66 0 6 0 C6.66 2.64 7.32 5.28 8 8 C8.66 8 9.32 8 10 8 C10 8.99 10 9.98 10 11 C10.66 11.33 11.32 11.66 12 12 C11.360625 11.814375 10.72125 11.62875 10.0625 11.4375 C9.0415625 11.2209375 9.0415625 11.2209375 8 11 C7.67 11.33 7.34 11.66 7 12 C4.66055264 11.71269945 2.3260857 11.38063221 0 11 C0 7.37 0 3.74 0 0 Z " fill="#838887" transform="translate(3,24)"/>
<path d="M0 0 C0.5775 0.165 1.155 0.33 1.75 0.5 C4.45033485 1.10007441 6.34161797 0.66459551 9 0 C8.67 1.32 8.34 2.64 8 4 C8 3.34 8 2.68 8 2 C7.34 2 6.68 2 6 2 C6 2.99 6 3.98 6 5 C6.66 5 7.32 5 8 5 C7.125 8.875 7.125 8.875 6 10 C3.5625 10.1875 3.5625 10.1875 1 10 C-1 8 -1 8 -1.1875 4.4375 C-1 1 -1 1 0 0 Z " fill="#D8A11A" transform="translate(38,14)"/>
<path d="M0 0 C2.31 0 4.62 0 7 0 C9.125 4.625 9.125 4.625 8 8 C7.34 7.34 6.68 6.68 6 6 C6 7.65 6 9.3 6 11 C5.34 11 4.68 11 4 11 C4 10.01 4 9.02 4 8 C3.01 8.33 2.02 8.66 1 9 C0.67 6.03 0.34 3.06 0 0 Z " fill="#AAB0B0" transform="translate(9,24)"/>
<path d="M0 0 C1.32 0 2.64 0 4 0 C4 3.96 4 7.92 4 12 C2.35 12 0.7 12 -1 12 C-2.06775224 10.03533587 -3.06553465 8.03144641 -4 6 C-3.67 5.34 -3.34 4.68 -3 4 C-2.01 5.485 -2.01 5.485 -1 7 C-0.67 4.69 -0.34 2.38 0 0 Z " fill="#585D5C" transform="translate(18,24)"/>
<path d="M0 0 C0.99 0.33 1.98 0.66 3 1 C3.29648437 1.66515625 3.59296875 2.3303125 3.8984375 3.015625 C4.44371094 3.99789062 4.44371094 3.99789062 5 5 C7.18541552 5.6993514 7.18541552 5.6993514 9.625 5.75 C10.85089844 5.83507813 10.85089844 5.83507813 12.1015625 5.921875 C12.72804688 5.94765625 13.35453125 5.9734375 14 6 C13.34 7.32 12.68 8.64 12 10 C6.78723404 10.5212766 6.78723404 10.5212766 4 10 C0.76995909 6.446955 0 4.83406485 0 0 Z " fill="#AEB1AC" transform="translate(34,36)"/>
<path d="M0 0 C0.33 0 0.66 0 1 0 C2.53525127 8.84669542 1.8634912 14.39343244 -3 22 C-3.66 21.34 -4.32 20.68 -5 20 C-4.61121812 16.98694043 -3.73543126 15.60314689 -2 13 C-1.57796044 10.06439861 -1.57796044 10.06439861 -1.4375 6.875 C-1.09808917 1.09808917 -1.09808917 1.09808917 0 0 Z " fill="#131515" transform="translate(36,11)"/>
<path d="M0 0 C0.33 0 0.66 0 1 0 C1 2.97 1 5.94 1 9 C1.9075 8.690625 2.815 8.38125 3.75 8.0625 C7 7 7 7 9.3125 6.5625 C9.869375 6.376875 10.42625 6.19125 11 6 C11.33 5.01 11.66 4.02 12 3 C12 4.32 12 5.64 12 7 C9.67063051 9.24844847 6.96718468 10.72756591 4 12 C1 11.8125 1 11.8125 -1 11 C-2.0257259 6.58937864 -2.03684712 4.07369424 0 0 Z " fill="#985C0A" transform="translate(48,40)"/>
<path d="M0 0 C1.98 0 3.96 0 6 0 C5.67 0.99 5.34 1.98 5 3 C4.34 2.67 3.68 2.34 3 2 C3 4.97 3 7.94 3 11 C2.01 11 1.02 11 0 11 C0 7.37 0 3.74 0 0 Z " fill="#A4AAAA" transform="translate(22,24)"/>
<path d="M0 0 C0.556875 0.185625 1.11375 0.37125 1.6875 0.5625 C4.399133 1.07551165 6.34371039 0.6640724 9 0 C8.67 1.32 8.34 2.64 8 4 C8 3.34 8 2.68 8 2 C7.34 2 6.68 2 6 2 C6 2.66 6 3.32 6 4 C3.69 4.33 1.38 4.66 -1 5 C-0.67 3.35 -0.34 1.7 0 0 Z " fill="#908E83" transform="translate(38,14)"/>
<path d="M0 0 C1.32 0 2.64 0 4 0 C4 2.64 4 5.28 4 8 C3.01 8.33 2.02 8.66 1 9 C0.67 6.03 0.34 3.06 0 0 Z " fill="#999E9E" transform="translate(9,24)"/>
<path d="M0 0 C0.33 0 0.66 0 1 0 C1.66 2.64 2.32 5.28 3 8 C3.66 8 4.32 8 5 8 C5 8.99 5 9.98 5 11 C5.66 11.33 6.32 11.66 7 12 C6.360625 11.814375 5.72125 11.62875 5.0625 11.4375 C4.0415625 11.2209375 4.0415625 11.2209375 3 11 C2.67 11.33 2.34 11.66 2 12 C0.33382885 12.04063832 -1.33388095 12.042721 -3 12 C-2.01 11.34 -1.02 10.68 0 10 C0.36416047 7.56306689 0.36416047 7.56306689 0.1875 4.875 C0.16042969 3.96492188 0.13335937 3.05484375 0.10546875 2.1171875 C0.05326172 1.06917969 0.05326172 1.06917969 0 0 Z " fill="#5F6463" transform="translate(8,24)"/>
<path d="M0 0 C0.66 0.33 1.32 0.66 2 1 C0.58480285 3.0343459 -0.54982123 3.90410393 -2.98046875 4.421875 C-4.98176954 4.66273952 -6.9909944 4.83532741 -9 5 C-8.67 3.68 -8.34 2.36 -8 1 C-6.865625 1.020625 -5.73125 1.04125 -4.5625 1.0625 C-1.18424326 1.41577477 -1.18424326 1.41577477 0 0 Z " fill="#A9ACA9" transform="translate(45,22)"/>
<path d="M0 0 C0.66 0 1.32 0 2 0 C2 3.63 2 7.26 2 11 C1.01 10.67 0.02 10.34 -1 10 C-0.67 6.7 -0.34 3.4 0 0 Z " fill="#ABB1B1" transform="translate(19,24)"/>
<path d="M0 0 C2.9375 1.1875 2.9375 1.1875 3.9375 3.1875 C1.2975 3.1875 -1.3425 3.1875 -4.0625 3.1875 C-4.3925 2.1975 -4.7225 1.2075 -5.0625 0.1875 C-3.0625 -0.8125 -3.0625 -0.8125 0 0 Z " fill="#5C6569" transform="translate(43.0625,7.8125)"/>
<path d="M0 0 C0.33 0 0.66 0 1 0 C1.3633218 6.41868512 1.3633218 6.41868512 -0.25 9 C-2 10 -2 10 -4.1875 9.6875 C-4.785625 9.460625 -5.38375 9.23375 -6 9 C-5.195625 8.443125 -4.39125 7.88625 -3.5625 7.3125 C-0.75771784 4.78135513 -0.30618405 3.67420866 0 0 Z " fill="#C0C1BC" transform="translate(50,31)"/>
<path d="M0 0 C1.32 0.33 2.64 0.66 4 1 C2.02 3.97 2.02 3.97 0 7 C-0.66 6.01 -1.32 5.02 -2 4 C-1.34 4 -0.68 4 0 4 C0 2.68 0 1.36 0 0 Z " fill="#AAB0B0" transform="translate(30,24)"/>
<path d="M0 0 C2.31 0 4.62 0 7 0 C5.35 1.65 3.7 3.3 2 5 C1.34 3.35 0.68 1.7 0 0 Z " fill="#040708" transform="translate(39,12)"/>
</svg>
