<?xml version="1.0" encoding="UTF-8"?>
<svg version="1.1" xmlns="http://www.w3.org/2000/svg" width="96" height="96">
<path d="M0 0 C3.23398829 -0.13117581 6.46728917 -0.21079634 9.703125 -0.28125 C10.61723145 -0.31895508 11.53133789 -0.35666016 12.47314453 -0.39550781 C19.29576488 -0.50704929 19.29576488 -0.50704929 22.9296875 2.109375 C24.62872462 4.34072847 25.91390622 6.41796573 27 9 C29.92202417 9.14031566 29.92202417 9.14031566 33 8 C33.99 5.36 34.98 2.72 36 0 C42.6 0 49.2 0 56 0 C57.32 2.495625 58.64 4.99125 60 7.5625 C60.41765625 8.33408447 60.8353125 9.10566895 61.265625 9.90063477 C61.75289062 10.84894165 61.75289062 10.84894165 62.25 11.81640625 C62.75273437 12.76688843 62.75273437 12.76688843 63.265625 13.73657227 C65.26029463 19.88437217 63.53057503 26.29510988 62.25 32.43359375 C61.98364746 33.7504995 61.98364746 33.7504995 61.71191406 35.0940094 C61.14762578 37.87651031 60.57396799 40.65698143 60 43.4375 C59.61396115 45.33255565 59.22853802 47.22773685 58.84375 49.12304688 C57.90295151 53.75018091 56.95374969 58.37551888 56 63 C52.75811639 63.11649163 49.5167731 63.18734306 46.2734375 63.25 C44.8975647 63.30027344 44.8975647 63.30027344 43.49389648 63.3515625 C36.65895278 63.45075443 36.65895278 63.45075443 33.25610352 61.12304688 C31.625 59 31.625 59 30.25390625 56.78125 C29.84011719 56.1934375 29.42632812 55.605625 29 55 C25.70012347 54.32649231 25.70012347 54.32649231 23 55 C22.34 57.64 21.68 60.28 21 63 C2.81554284 64.77891429 2.81554284 64.77891429 -2.89453125 60.65625 C-5.91183213 58.02700211 -8.4645959 55.089884 -11 52 C-11.92619141 51.32904297 -11.92619141 51.32904297 -12.87109375 50.64453125 C-14.5443677 48.20699377 -13.84356763 46.13182774 -13.44352722 43.32695007 C-12.65596991 39.19505817 -11.36193937 35.24378929 -10.05859375 31.25 C-9.77146011 30.35128174 -9.48432648 29.45256348 -9.18849182 28.52661133 C-8.27808063 25.68224388 -7.35796388 22.84112823 -6.4375 20 C-5.81510905 18.06140525 -5.19335773 16.12260502 -4.57226562 14.18359375 C-3.055564 9.4533207 -1.53015544 4.72593728 0 0 Z M4 3 C3.34 4.98 2.68 6.96 2 9 C6.29 9 10.58 9 15 9 C15.66 7.02 16.32 5.04 17 3 C12.71 3 8.42 3 4 3 Z M39 3 C38.67 4.98 38.34 6.96 38 9 C40.31 9.33 42.62 9.66 45 10 C44.34 12.64 43.68 15.28 43 18 C44.98 18 46.96 18 49 18 C49.99 13.05 50.98 8.1 52 3 C47.71 3 43.42 3 39 3 Z M1 12 C-0.65 16.95 -2.3 21.9 -4 27 C-1.36 27.33 1.28 27.66 4 28 C3.67 29.65 3.34 31.3 3 33 C4.65 33 6.3 33 8 33 C8.33 31.35 8.66 29.7 9 28 C11.31 28 13.62 28 16 28 C15.67 28.9075 15.34 29.815 15 30.75 C13.80394277 34.07045807 13.80394277 34.07045807 14 38 C16.64 38 19.28 38 22 38 C24.29045014 33.18790099 24.29045014 33.18790099 25 28 C27.31 28 29.62 28 32 28 C31.77280273 28.80219971 31.77280273 28.80219971 31.54101562 29.62060547 C30.85799095 32.03798743 30.17894984 34.45647057 29.5 36.875 C29.26152344 37.71675781 29.02304687 38.55851562 28.77734375 39.42578125 C28.55175781 40.23144531 28.32617188 41.03710938 28.09375 41.8671875 C27.88427734 42.61081543 27.67480469 43.35444336 27.45898438 44.12060547 C26.92091777 46.00137827 26.92091777 46.00137827 27 48 C31.95 48 36.9 48 42 48 C43.0042884 44.06354814 44.00360578 40.12595014 45 36.1875 C45.28617188 35.06794922 45.57234375 33.94839844 45.8671875 32.79492188 C46.13789062 31.72177734 46.40859375 30.64863281 46.6875 29.54296875 C47.06455078 28.0583313 47.06455078 28.0583313 47.44921875 26.54370117 C48.10581171 23.945099 48.10581171 23.945099 48 21 C37.77 21 27.54 21 17 21 C17.66 18.03 18.32 15.06 19 12 C13.06 12 7.12 12 1 12 Z M31 12 C30.67 13.98 30.34 15.96 30 18 C32.97 18 35.94 18 39 18 C39.33 16.02 39.66 14.04 40 12 C37.03 12 34.06 12 31 12 Z M-5 30 C-5.67220351 31.93558599 -6.33758077 33.87354372 -7 35.8125 C-7.37125 36.89144531 -7.7425 37.97039063 -8.125 39.08203125 C-9.14361512 41.97120802 -9.14361512 41.97120802 -9 45 C-4.38 45 0.24 45 5 45 C5 44.01 5 43.02 5 42 C2.03 42 -0.94 42 -4 42 C-3.7834375 41.38511719 -3.566875 40.77023438 -3.34375 40.13671875 C-2.92609375 38.92435547 -2.92609375 38.92435547 -2.5 37.6875 C-2.2215625 36.88699219 -1.943125 36.08648437 -1.65625 35.26171875 C-0.86066893 32.91230578 -0.86066893 32.91230578 -1 30 C-2.32 30 -3.64 30 -5 30 Z M2 36 C1.67 36.99 1.34 37.98 1 39 C2.65 39 4.3 39 6 39 C6.33 38.01 6.66 37.02 7 36 C5.35 36 3.7 36 2 36 Z " fill="#d9f99d" transform="translate(23,15)"/>
</svg>
