<?xml version="1.0" encoding="UTF-8"?>
<svg version="1.1" xmlns="http://www.w3.org/2000/svg" width="272" height="272">
<path d="M0 0 C14.69100978 -0.07025018 29.38199717 -0.12306629 44.0731411 -0.15543652 C50.89533497 -0.17086971 57.71742414 -0.19189083 64.53955078 -0.22631836 C71.12719097 -0.25954656 77.71475125 -0.2768697 84.30247879 -0.28463173 C86.81179131 -0.29016111 89.32109811 -0.30095858 91.83036423 -0.31719017 C95.35367274 -0.33906826 98.87653648 -0.34196252 102.39990234 -0.34057617 C103.42993378 -0.351362 104.45996521 -0.36214783 105.52120972 -0.3732605 C113.37688475 -0.3399634 120.8772635 0.38709803 127.0625 5.5625 C130.58522159 11.81248991 130.74121525 18.57475588 128.9140625 25.45703125 C125.2860197 35.55043238 120.00279373 43.92873877 113 52 C112.37480469 52.82371094 111.74960938 53.64742187 111.10546875 54.49609375 C104.2418966 62.65852371 94.90060239 67.50670235 85 71 C85.969375 71.61875 86.93875 72.2375 87.9375 72.875 C91.71615765 75.49692571 91.71615765 75.49692571 92.34375 78.8203125 C92.9520139 87.792205 88.87019787 95.18658166 85 103 C84.70641602 103.60875977 84.41283203 104.21751953 84.11035156 104.84472656 C77.17172657 119.14322183 68.20003505 128.71425333 53.125 134.375 C47.60542957 136.26977791 42.62467632 137.12521177 36.78007507 137.12025452 C35.52790695 137.12162918 34.27573883 137.12300385 32.98562622 137.12442017 C31.60589575 137.1208815 30.22616553 137.1172467 28.84643555 137.11352539 C27.38758852 137.11324319 25.92874135 137.11340189 24.46989441 137.1139679 C20.51575867 137.1142546 16.56165332 137.10837837 12.60752463 137.10139394 C8.47287383 137.09513928 4.33822231 137.09455493 0.2035675 137.09336853 C-7.62320147 137.09026145 -15.44995646 137.08205644 -23.27671927 137.07201904 C-32.18839288 137.06083858 -41.10006717 137.05534258 -50.01174605 137.05032361 C-68.34117196 137.03987332 -86.67058485 137.02228592 -105 137 C-102.13525552 129.69006818 -102.13525552 129.69006818 -99 127 C-94.20731012 126.18255064 -89.35243393 126.47185885 -84.5078125 126.55078125 C-79.8202501 126.52057788 -76.79725374 126.44892092 -72.65625 124.1171875 C-68.88047538 120.2498541 -66.42750323 115.33816101 -63.875 110.625 C-63.0406543 109.11534668 -63.0406543 109.11534668 -62.18945312 107.57519531 C-56.2781841 96.81802156 -50.47587799 85.98598652 -45 75 C-44.52119385 74.05898437 -44.0423877 73.11796875 -43.54907227 72.1484375 C-40.83138769 66.56880033 -39.42808932 62.69666692 -39.9375 56.5 C-40.21484375 52.96875 -40.21484375 52.96875 -40 50 C-38.05487783 47.8669222 -36.85537211 47.10650548 -33.9921875 46.75 C-28.40923441 47.40924169 -24.09299764 49.15239494 -19.1640625 51.84375 C-15.13401739 53.9969871 -11.91774902 54.14012165 -7.40820312 54.17700195 C-6.40992493 54.18685875 -6.40992493 54.18685875 -5.39147949 54.19691467 C-3.18806841 54.21662647 -0.98472569 54.22831051 1.21875 54.23828125 C2.35244774 54.24439454 2.35244774 54.24439454 3.50904846 54.25063133 C7.51579514 54.27149118 11.52250766 54.28578866 15.52929688 54.29516602 C19.64357528 54.30618135 23.75730548 54.34052403 27.8713913 54.38033772 C31.05441197 54.40665363 34.23730556 54.4148714 37.42042542 54.41844749 C38.93530444 54.42328134 40.45017903 54.43480257 41.96495056 54.45348549 C55.31310405 54.60777786 65.09016201 52.80121834 74.89453125 43.30859375 C78.99777947 38.80948485 81.23364299 35.24463979 81 29 C80.27496277 28.99413376 79.54992554 28.98826752 78.80291748 28.98222351 C71.91930475 28.92395456 65.03596061 28.851687 58.15266037 28.76428509 C54.61514378 28.71984476 51.07773541 28.68053362 47.54003906 28.65356445 C43.45870159 28.62221357 39.37795311 28.56743915 35.296875 28.51171875 C34.04638367 28.50532883 32.79589233 28.4989389 31.50750732 28.49235535 C20.86269832 28.31681736 9.34978593 27.32437362 1 20 C-2.58960566 15.17646739 -2.73964131 9.82107318 -2 4 C-1.36115566 2.65311466 -0.69787674 1.31726622 0 0 Z M-31 66 C-31.66 66.66 -32.32 67.32 -33 68 C-32.67958603 70.60280568 -32.67958603 70.60280568 -32 73 C-30.16299211 73.77242269 -30.16299211 73.77242269 -28 74 C-26.08333333 72.91666667 -26.08333333 72.91666667 -25 71 C-25.22757731 68.83700789 -25.22757731 68.83700789 -26 67 C-28.39719432 66.32041397 -28.39719432 66.32041397 -31 66 Z M-24.8125 79.1875 C-26.25290328 80.95054109 -26.25290328 80.95054109 -25.6875 83.1875 C-25.460625 83.785625 -25.23375 84.38375 -25 85 C-22.60280568 85.67958603 -22.60280568 85.67958603 -20 86 C-19.34 85.34 -18.68 84.68 -18 84 C-18.32041397 81.39719432 -18.32041397 81.39719432 -19 79 C-22.00748915 77.84137694 -22.00748915 77.84137694 -24.8125 79.1875 Z M-2.01513672 82.7512207 C-2.71254777 84.1502032 -3.37812186 85.56584458 -4 87 C-4.4547168 87.85956299 -4.90943359 88.71912598 -5.37792969 89.60473633 C-5.72243164 90.33974365 -6.06693359 91.07475098 -6.421875 91.83203125 C-6.80730469 92.64994141 -7.19273437 93.46785156 -7.58984375 94.31054688 C-7.97269531 95.13619141 -8.35554688 95.96183594 -8.75 96.8125 C-9.14832031 97.65748047 -9.54664062 98.50246094 -9.95703125 99.37304688 C-11.45265743 102.56456105 -12.88433135 105.65299405 -14 109 C-7.59545578 109.0763903 -1.19103014 109.12874214 5.21386719 109.16479492 C7.39034415 109.17983299 9.56679105 109.20026873 11.74316406 109.22631836 C14.88093508 109.2629209 18.0183036 109.27977661 21.15625 109.29296875 C22.12115356 109.30845261 23.08605713 109.32393646 24.0802002 109.33988953 C30.08941877 109.34136901 34.55859097 108.62363167 40 106 C41.99619181 103.85544618 43.43566394 101.60760336 44.875 99.0625 C45.25140625 98.44181641 45.6278125 97.82113281 46.015625 97.18164062 C50.55017136 89.64057407 50.55017136 89.64057407 51 81 C47.86109361 78.90739574 47.02022926 78.73305611 43.42431641 78.64599609 C42.49970612 78.62032562 41.57509583 78.59465515 40.62246704 78.56820679 C39.62556854 78.55343292 38.62867004 78.53865906 37.6015625 78.5234375 C36.5744516 78.50729401 35.5473407 78.49115051 34.48910522 78.47451782 C32.31539651 78.4468542 30.14160124 78.42540173 27.96777344 78.40966797 C24.64351268 78.375192 21.32320856 78.28742372 18 78.19921875 C15.88805009 78.17896797 13.77606637 78.16193478 11.6640625 78.1484375 C10.67121246 78.11342133 9.67836243 78.07840515 8.65542603 78.04232788 C3.55203029 78.07440457 0.8423196 78.27544213 -2.01513672 82.7512207 Z M-40 82 C-40.66 82.66 -41.32 83.32 -42 84 C-41.67958603 86.60280568 -41.67958603 86.60280568 -41 89 C-39.16299211 89.77242269 -39.16299211 89.77242269 -37 90 C-35.08333333 88.91666667 -35.08333333 88.91666667 -34 87 C-34.22757731 84.83700789 -34.22757731 84.83700789 -35 83 C-37.39719432 82.32041397 -37.39719432 82.32041397 -40 82 Z M-33 94 C-35.30671915 96.71549154 -35.30671915 96.71549154 -34.625 99.1875 C-34.41875 99.785625 -34.2125 100.38375 -34 101 C-31.60280568 101.67958603 -31.60280568 101.67958603 -29 102 C-28.34 101.34 -27.68 100.68 -27 100 C-27.32041397 97.39719432 -27.32041397 97.39719432 -28 95 C-29.65 94.67 -31.3 94.34 -33 94 Z M-49 98 C-49.66 98.66 -50.32 99.32 -51 100 C-50.67958603 102.60280568 -50.67958603 102.60280568 -50 105 C-48.16299211 105.77242269 -48.16299211 105.77242269 -46 106 C-44.08333333 104.91666667 -44.08333333 104.91666667 -43 103 C-43.22757731 100.83700789 -43.22757731 100.83700789 -44 99 C-46.39719432 98.32041397 -46.39719432 98.32041397 -49 98 Z M-42 110 C-42.66 110.66 -43.32 111.32 -44 112 C-43.67958603 114.60280568 -43.67958603 114.60280568 -43 117 C-40.60280568 117.67958603 -40.60280568 117.67958603 -38 118 C-37.34 117.34 -36.68 116.68 -36 116 C-36.32041397 113.39719432 -36.32041397 113.39719432 -37 111 C-39.39719432 110.32041397 -39.39719432 110.32041397 -42 110 Z M-59 114 C-59.38133299 115.9914056 -59.71325582 117.99279077 -60 120 C-58.87465895 121.35618499 -58.87465895 121.35618499 -55.9375 121.0625 C-54.968125 121.041875 -53.99875 121.02125 -53 121 C-52.32041397 118.60280568 -52.32041397 118.60280568 -52 116 C-53.83883881 113.71271266 -53.83883881 113.71271266 -56.625 113.875 C-57.800625 113.936875 -57.800625 113.936875 -59 114 Z " fill="#f8fafc" transform="translate(137,108)"/>
<path d="M0 0 C2.62603092 -0.3719368 2.62603092 -0.3719368 6.02638245 -0.36749268 C7.31190506 -0.37306183 8.59742767 -0.37863098 9.92190552 -0.3843689 C11.35492125 -0.37534518 12.78793516 -0.36602736 14.22094727 -0.35644531 C15.72386291 -0.35723585 17.22677835 -0.35933206 18.72969055 -0.36264038 C22.82105189 -0.36778787 26.91216295 -0.35420843 31.00348401 -0.33711338 C35.28608423 -0.32209395 39.56868095 -0.32325164 43.8513031 -0.32244873 C51.05170975 -0.31875162 58.25202134 -0.30376888 65.45239258 -0.28125 C74.67731464 -0.25245709 83.9021598 -0.24203399 93.12712193 -0.2375679 C101.06889553 -0.23357568 109.0106526 -0.22106948 116.95241427 -0.20722103 C119.49807176 -0.20313437 122.04372867 -0.20020228 124.58938789 -0.19742584 C128.6038798 -0.19250284 132.61832609 -0.1822495 136.63279533 -0.16798782 C138.10127728 -0.16349486 139.56976534 -0.16063334 141.03825378 -0.15958023 C162.80332451 -0.14048249 162.80332451 -0.14048249 170 5 C172.95324143 9.59037751 172.09479189 13.8649881 171 19 C169.552103 23.27150639 167.75100974 27.33871807 165.875 31.4375 C165.41351563 32.49259766 164.95203125 33.54769531 164.4765625 34.63476562 C156.67713662 52.04419838 146.23474416 66.53971377 127.98338318 73.91757202 C118.3837801 77.40049001 109.0604116 78.42435965 98.89523125 78.34955978 C96.81347898 78.33554976 94.73265087 78.34240942 92.65089417 78.35440063 C86.74432525 78.38501956 80.83799535 78.38034899 74.93139648 78.36035156 C71.29164565 78.34944012 67.65260816 78.36258726 64.01295662 78.39024734 C62.6346792 78.39567608 61.25632986 78.39165396 59.87811089 78.37784958 C57.95976615 78.3588174 56.0411799 78.37276304 54.12280273 78.38818359 C52.48951271 78.38460342 52.48951271 78.38460342 50.82322693 78.38095093 C47.03087403 79.21250029 46.07379188 80.80200242 44 84 C42.71887785 86.34408471 41.51658384 88.66771331 40.359375 91.0703125 C40.02008972 91.7611795 39.68080444 92.45204651 39.33123779 93.16384888 C38.214932 95.43973522 37.10729236 97.7197164 36 100 C33.17638804 105.78253795 30.34274452 111.56008517 27.49853516 117.33251953 C26.6548673 119.05054007 25.81545419 120.77065555 24.97998047 122.49267578 C23.75303912 125.01901005 22.51096496 127.53738264 21.265625 130.0546875 C20.89576477 130.82537567 20.52590454 131.59606384 20.14483643 132.3901062 C19.7905658 133.09910065 19.43629517 133.80809509 19.07128906 134.53857422 C18.61450775 135.47212234 18.61450775 135.47212234 18.14849854 136.42453003 C16.57940636 138.5769556 15.54847513 139.14803164 13 140 C10.21295666 140.18077635 7.52865177 140.25271503 4.74316406 140.22705078 C3.91352646 140.22734283 3.08388885 140.22763489 2.22911072 140.22793579 C-0.50882482 140.2265442 -3.24648709 140.21099104 -5.984375 140.1953125 C-7.88437756 140.19158176 -9.78438204 140.18873508 -11.68438721 140.18673706 C-16.68212202 140.17910539 -21.67974036 140.15946085 -26.6774292 140.1373291 C-31.77842636 140.11686067 -36.87944235 140.10773321 -41.98046875 140.09765625 C-51.98703031 140.07621457 -61.99350546 140.04208419 -72 140 C-71.10034652 135.94219943 -69.73556506 133.20195648 -67 130 C-63.6796875 129.3359375 -63.6796875 129.3359375 -59.875 129.375 C-48.89648036 129.11017019 -42.19693983 126.03711576 -34.26171875 118.42578125 C-29.72086144 113.55553533 -26.38663382 108.83067673 -24.625 102.375 C-22.76410614 96.16480768 -18.16272852 92.84989782 -12.72265625 89.66796875 C-11.21379644 88.85550577 -9.70081543 88.05064484 -8.18359375 87.25390625 C-3.75548075 84.71110791 0.35782867 81.926514 2 77 C2.56027494 71.39725056 1.3025039 67.8788964 -1.22265625 63.015625 C-2 61 -2 61 -1 58 C9.90343439 51.08051279 23.21211106 51.71503537 35.69931602 51.72560501 C38.26143326 51.72658633 40.82314905 51.71344501 43.38520813 51.69662476 C50.65920055 51.65081126 57.93314311 51.62574176 65.20727539 51.61914062 C69.68339302 51.61410338 74.15907893 51.58975816 78.63504982 51.55381393 C80.32653006 51.544083 82.01807012 51.54164694 83.70956993 51.54698563 C96.64660579 51.58594394 107.17405246 50.17088437 117 41 C120.45472853 37.11557887 122.04923331 34.12156799 123 29 C121.08559113 28.99453156 121.08559113 28.99453156 119.13250732 28.98895264 C107.06885535 28.95191325 95.00545653 28.89404284 82.94199753 28.81609726 C76.74094376 28.77669124 70.54003054 28.74446892 64.33886719 28.72900391 C58.34754358 28.71379224 52.35660656 28.67926623 46.36545563 28.63169098 C44.08671694 28.61692371 41.80792304 28.60896168 39.52913666 28.60811615 C12.33550944 28.58788965 12.33550944 28.58788965 4.74017334 22.05682373 C0.16020316 17.3131922 -1.80296731 12.90623211 -2.25 6.3125 C-2 3 -2 3 0 0 Z " fill="#f8fafc" transform="translate(76,25)"/>
</svg>
