<?xml version="1.0" encoding="UTF-8"?>
<svg version="1.1" xmlns="http://www.w3.org/2000/svg" viewBox="-2 -2 106 134" width="106" height="134">
<path d="M0 0 C5.17950747 4.80481969 9.48772958 11.28664058 10.1640625 18.4921875 C10.39425239 30.57715688 5.97643703 37.81776018 -2.09347534 46.55154419 C-4.30950682 48.82777379 -6.55503752 51.06960279 -8.81640625 53.30078125 C-9.62775528 54.10930038 -10.43910431 54.91781952 -11.27503967 55.75083923 C-13.83750861 58.30221877 -16.40688318 60.84650983 -18.9765625 63.390625 C-20.72767714 65.13169531 -22.47833265 66.87322753 -24.22851562 68.61523438 C-28.49340796 72.85821568 -32.76397432 77.09541818 -37.0390625 81.328125 C-40.0390625 80.328125 -40.0390625 80.328125 -41.7265625 77.828125 C-43.38674082 73.40098281 -43.79582459 69.98763288 -43.0390625 65.328125 C-40.36168241 59.59219476 -36.22999174 55.12050111 -31.71484375 50.78125 C-31.12736862 50.20276306 -30.53989349 49.62427612 -29.93461609 49.02825928 C-28.08073732 47.2040866 -26.21715792 45.39030721 -24.3515625 43.578125 C-22.47623467 41.75073426 -20.60331986 39.92109889 -18.7363739 38.08514404 C-17.58068017 36.94911022 -16.42008649 35.81803347 -15.25398254 34.69268799 C-11.09036988 30.6071753 -9.22564301 28.25612355 -8.6640625 22.453125 C-8.76844771 18.14924247 -10.27197133 15.64863441 -13.0390625 12.328125 C-17.33961051 9.46109299 -20.99830967 9.38960645 -26.0390625 10.328125 C-29.24608287 12.12811272 -31.52861802 14.66696773 -34.0390625 17.328125 C-35.6968374 19.01678361 -37.36368228 20.69599856 -39.03393555 22.37231445 C-40.18786105 23.53490764 -41.33413721 24.70515254 -42.47192383 25.88354492 C-47.6557063 31.18808106 -47.6557063 31.18808106 -51.0390625 32.328125 C-54.5403152 32.18223947 -56.51521258 31.68654863 -59.4140625 29.703125 C-61.79102722 26.22909964 -61.79853908 24.47072454 -61.0390625 20.328125 C-59.11235897 17.26965156 -56.59071565 14.87141208 -54.0390625 12.328125 C-53.03460622 11.26737576 -52.03214211 10.20473794 -51.03125 9.140625 C-35.90602798 -6.72656336 -19.14665259 -15.69878794 0 0 Z " fill="#3DA7F1" transform="translate(87.0390625,36.671875)"/>
<path d="M0 0 C3 1 3 1 4.75 4 C6.44563066 8.3691647 6.38119215 12.53942862 5 17 C2.14009857 21.75484938 -1.18978735 25.39498647 -5.19140625 29.2109375 C-6.39560696 30.38498124 -7.59936975 31.55947431 -8.80273438 32.734375 C-10.6826098 34.55853405 -12.56612289 36.37847029 -14.45776367 38.19042969 C-16.29706725 39.95673553 -18.11995712 41.73874972 -19.94140625 43.5234375 C-20.50396622 44.05391693 -21.06652618 44.58439636 -21.64613342 45.13095093 C-25.45679987 48.89224822 -27.89961258 52.69421181 -29 58 C-28.7632914 62.76448813 -27.55621928 65.34881645 -24.4375 69 C-20.20073315 71.46502799 -16.79676915 72.15921921 -12 71 C-5.3016086 67.370517 -0.48352852 61.47240374 4.63476562 55.93554688 C10.73477277 49.5943894 10.73477277 49.5943894 14.85546875 48.88671875 C18 49 18 49 20.875 50.5 C23.75003468 53.88239374 24.29682394 55.54764092 24 60 C22.18620694 63.1381499 19.56668734 65.46879682 17 68 C15.86814364 69.20818051 14.73950672 70.41938136 13.61328125 71.6328125 C5.53420897 80.20155757 -2.14281084 87.7712583 -14.1875 90 C-24.12516716 90 -31.07437778 86.72790964 -38.23828125 79.8515625 C-45.03240425 72.57303219 -47.27203189 66.66930771 -47.69140625 56.76953125 C-45.71255227 45.98086405 -39.12078254 38.26032894 -31.4453125 30.859375 C-30.54376434 29.96631653 -29.64221619 29.07325806 -28.71334839 28.15313721 C-26.34671746 25.8141395 -23.96801604 23.48905977 -21.58197021 21.16998291 C-19.13728218 18.78735683 -16.71009668 16.38703507 -14.28125 13.98828125 C-9.53654992 9.30930724 -4.77509761 4.64793724 0 0 Z " fill="#77C442" transform="translate(50,2)"/>
<path d="M0 0 C1.5 1.375 1.5 1.375 3 3 C5.59915538 4.19027984 5.59915538 4.19027984 8 5 C7.01 5.495 7.01 5.495 6 6 C5.31651045 7.32478838 4.65208241 8.6594737 4 10 C0.84272873 14.30536991 -2.26992549 17.44320297 -7 20 C-7.515625 20.53625 -8.03125 21.0725 -8.5625 21.625 C-10.29779613 23.28484848 -11.66471604 23.59736483 -14 24 C-16.44943326 19.63233588 -16.78273231 15.92233721 -16 11 C-14.19770509 6.52907099 -12.01268817 3.67512545 -8 1 C-5.02431995 0.00810665 -3.09196181 -0.50139921 0 0 Z " fill="#3DA7F3" transform="translate(60,91)"/>
<path d="M0 0 C2.0993812 3.14907181 2.58943548 5.1784143 2.52734375 8.9453125 C1.67021137 12.28495423 -0.64016097 13.64665847 -3.328125 15.625 C-5.51986605 17.42755339 -6.01162277 19.38786018 -7 22 C-9.375 23.5625 -9.375 23.5625 -12 25 C-13.0828125 26.0828125 -13.0828125 26.0828125 -14.1875 27.1875 C-14.785625 27.785625 -15.38375 28.38375 -16 29 C-16.66 29 -17.32 29 -18 29 C-18.12375 29.804375 -18.2475 30.60875 -18.375 31.4375 C-18.58125 32.283125 -18.7875 33.12875 -19 34 C-19.99 34.495 -19.99 34.495 -21 35 C-21.33 35.66 -21.66 36.32 -22 37 C-25.0625 37.625 -25.0625 37.625 -28 38 C-22.32339181 31.12685185 -16.01305643 24.98274562 -9.63671875 18.76367188 C-8.81300781 17.95091797 -7.98929688 17.13816406 -7.140625 16.30078125 C-6.01962402 15.20503784 -6.01962402 15.20503784 -4.87597656 14.0871582 C-1.96085209 10.84387357 -0.80520315 8.05203147 -0.375 3.75 C-0.25125 2.5125 -0.1275 1.275 0 0 Z " fill="#479ED7" transform="translate(79,55)"/>
<path d="M0 0 C0.99 0.33 1.98 0.66 3 1 C-2.94 6.94 -8.88 12.88 -15 19 C-15.99 18.67 -16.98 18.34 -18 18 C-17.505 16.515 -17.505 16.515 -17 15 C-15.66666667 14.66666667 -14.33333333 14.33333333 -13 14 C-12.67 13.01 -12.34 12.02 -12 11 C-10.34467377 9.98133771 -8.67739862 8.98189187 -7 8 C-6.34 7.01 -5.68 6.02 -5 5 C-4.34 5 -3.68 5 -3 5 C-2.690625 4.360625 -2.38125 3.72125 -2.0625 3.0625 C-1 1 -1 1 0 0 Z " fill="#439CDC" transform="translate(65,99)"/>
<path d="M0 0 C3.17686288 4.76529432 2.58450288 9.81711615 1.5703125 15.33984375 C-0.20806289 21.58611288 -3.80150423 26.134346 -8 31 C-8.33 30.01 -8.66 29.02 -9 28 C-7.85546875 26.16796875 -7.85546875 26.16796875 -6.1875 24.1875 C-1.66020868 18.79991579 -0.76678249 13.54649059 -0.375 6.625 C-0.30023438 5.37976562 -0.22546875 4.13453125 -0.1484375 2.8515625 C-0.09945312 1.91054688 -0.05046875 0.96953125 0 0 Z " fill="#469CD8" transform="translate(95,50)"/>
<path d="M0 0 C-0.99 0.33 -1.98 0.66 -3 1 C-4.91796875 0.00390625 -4.91796875 0.00390625 -7.1875 -1.4375 C-14.16991796 -5.19327311 -21.3125662 -4.42919916 -29 -4 C-19.35278174 -10.43147884 -8.57817199 -6.08473371 0 0 Z " fill="#489AD3" transform="translate(85,35)"/>
<path d="M0 0 C0.91459364 3.08675352 1.49308788 5.7949288 1 9 C0.195625 9.474375 -0.60875 9.94875 -1.4375 10.4375 C-4.34452754 11.80069894 -4.34452754 11.80069894 -4.8125 15.1875 C-4.874375 16.115625 -4.93625 17.04375 -5 18 C-5.33 18 -5.66 18 -6 18 C-6.74224763 10.87442279 -5.39195732 6.64474515 -1 1 C-0.67 0.67 -0.34 0.34 0 0 Z " fill="#41A2E2" transform="translate(50,93)"/>
<path d="M0 0 C0.33 0.66 0.66 1.32 1 2 C-0.54442235 5.63393495 -1.48567857 6.78822059 -5.1875 8.3125 C-6.5796875 8.6528125 -6.5796875 8.6528125 -8 9 C-7.04270084 7.87411986 -6.08412105 6.7493285 -5.125 5.625 C-4.59132812 4.99851562 -4.05765625 4.37203125 -3.5078125 3.7265625 C-2.38567993 2.44163349 -1.20628025 1.20628025 0 0 Z " fill="#72B54D" transform="translate(50,63)"/>
<path d="M0 0 C0.99 0.99 1.98 1.98 3 3 C1.4169423 7.2742558 -1.50568404 9.26531794 -5 12 C-4.4409112 8.75728494 -3.5867822 7.06942576 -1 5 C-0.34 5 0.32 5 1 5 C1 4.34 1 3.68 1 3 C0.34 3 -0.32 3 -1 3 C-0.67 2.01 -0.34 1.02 0 0 Z " fill="#6FBC41" transform="translate(49,19)"/>
<path d="M0 0 C2.97 0 5.94 0 9 0 C9.66 1.32 10.32 2.64 11 4 C6.44262737 3.56179109 3.42346555 3.14958831 0 0 Z " fill="#7BB84F" transform="translate(19,87)"/>
<path d="M0 0 C-3.465 2.97 -3.465 2.97 -7 6 C-7 4.35 -7 2.7 -7 1 C-3.375 -1.125 -3.375 -1.125 0 0 Z " fill="#6BBC47" transform="translate(40,36)"/>
<path d="M0 0 C0.99 0.33 1.98 0.66 3 1 C0.69 3.31 -1.62 5.62 -4 8 C-4.33 7.01 -4.66 6.02 -5 5 C-4.360625 4.731875 -3.72125 4.46375 -3.0625 4.1875 C-0.66868314 3.11332248 -0.66868314 3.11332248 0 0 Z " fill="#489BDA" transform="translate(79,85)"/>
<path d="M0 0 C0.33 0.99 0.66 1.98 1 3 C-0.65 4.32 -2.3 5.64 -4 7 C-4 5.68 -4 4.36 -4 3 C-2 1.25 -2 1.25 0 0 Z " fill="#2DB9EE" transform="translate(55,48)"/>
<path d="M0 0 C3.3 0 6.6 0 10 0 C8.515 1.485 8.515 1.485 7 3 C3.875 2.8125 3.875 2.8125 1 2 C0.67 1.34 0.34 0.68 0 0 Z " fill="#46A7D5" transform="translate(29,66)"/>
<path d="M0 0 C0 0.99 0 1.98 0 3 C-2 4.6875 -2 4.6875 -4 6 C-4.33 5.01 -4.66 4.02 -5 3 C-3.35 2.01 -1.7 1.02 0 0 Z " fill="#3FA1DE" transform="translate(72,73)"/>
<path d="M0 0 C0.33 0.99 0.66 1.98 1 3 C-1.97 5.475 -1.97 5.475 -5 8 C-5.66 7.67 -6.32 7.34 -7 7 C-4.69 4.69 -2.38 2.38 0 0 Z " fill="#4B9AD0" transform="translate(41,41)"/>
</svg>
